ply
format ascii 1.0
comment VCGLIB generated
element vertex 453
property float x
property float y
property float z
property float nx
property float ny
property float nz
element face 948
property list uchar int vertex_indices
end_header
-0.01372785 0.0185453 0.00457084 0.1291006 0.9776397 -0.1659932 
-0.02718365 0.02344529 0.00512639 0.6462702 0.7230862 -0.2438879 
-0.05080735 0.03706931 0.0407904 0.2889703 0.5353259 0.7936766 
0.0114928 0.0226393 0.0173202 -0.1402932 0.9833615 0.1154032 
0.0001369491 0.01985429 0.00469045 -0.1777976 0.9707459 -0.1613706 
0.05054505 -0.0007247031 0.0313759 0.681752 0.4679799 0.5623247 
0.05758105 -0.002548702 0.0167635 0.8995167 0.427894 0.08818407 
-0.01268645 -0.001436703 0.0393961 -0.106632 0.4678438 0.877355 
0.04791305 0.0108133 0.0182284 0.6942664 0.7079329 0.1297126 
-0.04658845 0.0516323 -0.017488 0.8151534 0.56501 0.1276272 
0.06219835 -0.014971 0.00449745 0.9691232 0.210289 -0.128759 
-0.01418165 0.0626363 -0.00692863 0.413974 0.2679063 0.8699723 
-0.06735855 0.0263193 0.0464393 -0.6147953 0.2907667 0.7331313 
-0.05136095 0.0142933 0.0511785 0.5049939 -0.1314603 0.853053 
0.0234485 0.0232653 0.0172468 0.112265 0.9854132 0.1278961 
0.05795665 -0.002616704 0.00583138 0.8927189 0.4443828 -0.07467829 
0.05622795 -0.005597703 -0.00520952 0.8075786 0.3495102 -0.4750364 
-0.07395755 0.02637731 0.0165242 -0.9956682 0.07884677 -0.0492761 
-0.06437835 -0.0005927011 0.0304376 -0.7638843 -0.3439581 0.5460528 
-0.04972425 0.0483963 0.0173079 0.01857117 0.9985591 0.05034695 
-0.06207495 0.04511631 0.0293527 -0.3228014 0.8826216 0.3417284 
0.02345382 0.0147453 0.0340488 0.1280248 0.6556458 0.7441359 
-0.03413795 0.03724229 0.017902 0.8439975 0.3604199 0.3971972 
-0.06048435 0.0247913 0.050771 -0.1047167 0.3601565 0.9269961 
0.01158667 0.02017529 0.0268839 -0.1308977 0.8962044 0.4238911 
-0.03041955 0.0215423 0.0263862 0.6180378 0.5425304 0.5689378 
-0.06493326 -0.0149453 -0.00613886 -0.8352932 -0.01156454 -0.5496832 
0.03493375 0.01993529 0.0179564 0.4293661 0.8924448 0.1385178 
-0.07319305 0.0125463 0.006102 -0.897143 -0.05478711 -0.4383296 
-0.01191005 0.0712713 -0.008457989 -0.2329561 0.7275535 0.6452886 
-0.06229535 0.03600129 0.042121 -0.241511 0.6635202 0.7081055 
-0.0007942505 0.0005702972 0.0409314 -0.1922452 0.4519098 0.8711024 
-0.00273885 0.07408729 -0.0189058 0.1894832 0.9732289 -0.1300829 
-0.02021015 0.0602283 -0.0136175 -0.562291 0.2727684 -0.7806576 
0.02331539 0.0203013 0.0273232 0.09905147 0.8842382 0.4564117 
-0.02604515 0.0222553 0.0169549 0.6027488 0.7616619 0.2378341 
0.03636365 0.0121033 0.0318306 0.3669741 0.6662792 0.6491549 
-0.02651635 0.0592763 0.00174058 -0.0397212 0.6694171 0.7418241 
-0.07231725 0.0246423 0.00647903 -0.9023432 0.1097279 -0.4168172 
-0.03985825 0.0372303 0.0309412 0.7564933 0.3188596 0.5710049 
0.06175595 -0.0143061 0.0170633 0.9604946 0.227003 0.160996 
0.05872805 -0.0155856 0.0279819 0.9008496 0.1946596 0.3880434 
-0.03890155 0.04680631 0.0162996 0.5570574 0.8045676 0.2058108 
-0.003119752 0.05201431 -0.00775362 0.596759 -0.5439225 0.5899382 
-0.05549555 -0.0421471 0.0175909 -0.5866856 -0.7904435 0.1760661 
-0.04990295 0.0474973 0.00523549 0.07341303 0.9779777 -0.1953718 
-0.07299265 0.0108523 0.0406364 -0.849584 -0.385462 0.3600364 
0.04480795 0.0102063 0.0280407 0.5882034 0.644326 0.4887338 
0.05940075 -0.0161201 -0.00614785 0.8914932 0.200709 -0.4061476 
-0.05271715 0.05754431 -0.0200445 0.2207396 0.9260153 0.3062184 
0.01130905 0.0149703 0.0342086 -0.09995355 0.7152135 0.6917217 
0.04750755 -0.0144801 0.0415692 0.5686625 0.2497536 0.7837386 
-1.915172e-05 0.0543673 -0.0151273 0.7936842 -0.47631 -0.37841 
-0.05890395 0.06353229 -0.0416805 -0.9509552 0.2808334 0.1296798 
-0.06792895 -0.002372704 0.00281646 -0.8634826 0.01333042 -0.5042025 
0.05453685 0.002684303 0.0201445 0.7969559 0.5901303 0.1288701 
0.01089643 -0.0650302 0.0463607 0.02383146 -0.4174792 0.908374 
0.02389169 -0.0640581 0.0462476 0.2085212 -0.4736235 0.8556867 
-0.03843095 0.0498473 0.00598615 -0.2670466 0.9460195 0.1836663 
-0.07365115 0.0110573 0.0292658 -0.9394815 -0.2965609 0.1715406 
-0.04201715 0.0205933 0.0393842 0.6802706 0.161939 0.714848 
-0.0001397505 0.01984631 0.0173582 -0.2239098 0.9573571 0.18257 
-0.04913925 0.0460723 0.0302919 0.1372592 0.8617717 0.4883743 
-0.02614805 0.0616793 -0.00608066 -0.6253225 0.7140794 -0.3147421 
-0.03978215 -0.0645157 0.0422836 -0.2558179 0.5788172 0.7742919 
-0.05888356 0.0494623 -0.0174673 -0.9928517 0.09905152 0.06659064 
-0.02595235 0.0482913 0.00557955 0.6590063 0.01613706 0.7519643 
-0.02521805 -0.0655942 0.042122 -0.1845082 0.1581031 0.970031 
-0.00792635 -0.0190965 0.0498043 -0.590458 0.1847917 0.7856281 
0.003314749 0.0185113 0.0260633 -0.3380568 0.8453299 0.4136847 
-0.07076445 -0.01789 0.00638785 -0.961858 -0.165531 -0.2177814 
-0.05137575 0.0500143 -0.00745433 0.4696153 0.8005232 0.3723226 
-0.05047385 0.0351183 -0.00815483 0.2307964 -0.08632732 -0.9691649 
0.03634755 -0.001465701 0.0411118 0.2510087 0.4586674 0.8524194 
-0.01899325 0.0634663 -3.336277e-05 0.4766198 0.4719227 0.7417024 
-0.04894146 0.009439297 -0.01045001 -0.2894596 0.2464996 -0.924906 
-0.05076686 0.0626393 -0.0442779 0.8506882 0.5034649 -0.1511713 
-0.07343125 0.03829131 0.0184598 -0.8964963 0.4427418 -0.01655762 
0.02427997 0.0080823 0.0382293 0.1390057 0.5030931 0.8529799 
0.04850765 -0.0146891 -0.0183764 0.5647752 0.2810586 -0.7759092 
0.02319135 -0.001868702 0.0429727 0.1117732 0.4963199 0.8609143 
-0.05315815 0.0228713 0.0496713 0.4290925 0.4687145 0.7721311 
0.02346835 0.0230993 0.00521639 0.1025451 0.9830224 -0.1521562 
0.03591545 -0.06544051 0.0418986 0.490677 -0.4417092 0.7510853 
0.03228135 -0.016784 0.0503874 0.339073 0.3398225 0.8772401 
0.01151143 0.007650301 0.0396243 -0.03185942 0.4911229 0.8705075 
-0.06363745 0.0102133 -0.00417293 -0.6307494 0.007718003 -0.7759482 
-0.06120946 0.0365153 -0.00446892 -0.7258791 0.06772295 -0.6844801 
0.02331363 -0.001532704 -0.0214752 0.1176399 0.5076545 -0.8534915 
-0.00178235 0.0120943 0.0322277 -0.2851985 0.7284426 0.6229231 
0.01156259 0.0224563 0.0053756 -0.1304752 0.9827862 -0.1307958 
-0.07183845 0.0349863 0.0284542 -0.8921939 0.3823982 0.2403369 
0.009868369 0.0155143 -0.01039395 -0.09452785 0.770032 -0.6309637 
-0.05173256 0.0711633 -0.0548527 0.2769063 0.7894832 -0.5477583 
-0.01238195 0.0164933 0.020389 0.04478284 0.8967026 0.4403624 
-0.06733286 0.04122829 0.0321913 -0.6905456 0.6758091 0.2577381 
-0.07135785 -0.0167864 0.017325 -0.9636283 -0.1568016 0.2164112 
-0.01309415 0.0146253 -0.00693611 0.09015266 0.8691437 -0.4862734 
-0.01322605 0.0102303 0.0300382 -0.07569835 0.7292048 0.6800957 
-0.06056745 0.0128943 0.0508215 -0.2566355 -0.2976187 0.9195441 
0.05076515 0.0007392988 -0.00801035 0.6540762 0.5147239 -0.5542957 
-0.05021745 -0.0148669 -0.0174598 -0.382096 0.1197565 -0.9163302 
-0.05817226 -0.016577 -0.0142751 -0.5899911 0.05214746 -0.805724 
-0.06492826 -0.0126466 0.0305094 -0.8129356 -0.01860782 0.5820563 
-0.06820466 0.0291443 0.00134282 -0.7945364 0.1606063 -0.5855916 
-0.01178665 -0.065984 0.0508186 -0.5327976 0.1062329 0.8395483 
-0.0002382509 -0.0653723 0.0511056 0.3550662 0.2665429 0.8960373 
-0.04820495 0.06324831 -0.0572224 0.2506645 0.1755106 -0.9520312 
-0.01235855 0.06314629 -0.0171393 -0.4188399 0.08112409 -0.9044291 
-0.03875645 0.0272543 0.0324671 0.7601966 0.2569275 0.5967324 
-0.04911895 0.0252623 0.044126 0.5831093 0.3302677 0.742231 
-0.02504415 0.0476823 -0.008071929 -0.07527284 -0.6532366 -0.7534029 
-0.03703705 -0.0362984 0.0391258 -0.1974079 -0.5058979 0.8397008 
-0.02382215 -0.0170664 -0.0231665 -0.2151397 0.008032143 -0.9765503 
0.0002061483 -0.0155813 0.0530428 -0.2715404 0.4460628 0.8528152 
0.01151256 -0.0137279 0.0536859 -0.04807695 0.462601 0.8852621 
0.05986615 -0.0405024 0.0290017 0.659373 0.1469539 0.7373139 
0.04606785 0.009150296 -0.00449612 0.6210842 0.6533004 -0.4329585 
-0.01568735 -0.0626843 0.0445362 -0.5351273 0.2844422 0.7954442 
-0.03644645 0.0108073 0.0347947 0.4976684 0.2550405 0.8290238 
0.05976615 -0.0282041 -0.00637301 0.8939374 -0.01623611 -0.4478977 
0.04722105 -0.0652085 0.0299191 0.4710359 -0.6757621 0.5669839 
-0.01407015 -0.0118256 -0.0242585 -0.4043591 0.3615364 -0.8401102 
0.05567415 -0.002637699 0.0261163 0.822874 0.3969669 0.4065658 
-0.01100505 -0.0172667 -0.0296638 -0.5076158 0.3609228 -0.7823433 
0.0001748484 -0.0639645 0.0426911 0.1912547 -0.4638827 0.8650055 
0.02126129 -0.0600036 0.0496253 0.175151 -0.4703922 0.8649008 
0.06076105 -0.0619296 0.0272467 0.4171717 -0.6270595 0.6578482 
-0.00583845 0.07348029 -0.0118677 0.5848674 0.6397189 0.4986883 
0.01186795 -0.0512549 0.0533034 -0.135139 -0.3191938 0.9380047 
0.02278806 -0.0520789 0.0527097 0.2159632 -0.3082788 0.9264579 
-0.07082815 -0.002001703 0.0167199 -0.974528 -0.1647466 0.152164 
-0.03914365 -0.0607403 0.0300025 -0.7059243 0.6724328 0.2224972 
-0.01213055 -0.0534399 0.0393167 -0.3166496 0.2274895 0.9208592 
0.01151968 -0.001861699 0.0434885 -0.06606449 0.5016376 0.8625516 
-0.00391845 -0.0530611 0.0440626 -0.5026628 0.07846271 0.8609145 
0.001344949 -0.0503224 0.0503256 -0.4892521 -0.2897946 0.8225883 
-0.03933675 0.0386333 -0.003221 0.1137128 0.2657336 -0.9573166 
-0.07565285 0.0113083 0.0174164 -0.9925839 -0.1192401 -0.02364181 
-0.04436825 0.0506583 -0.029881 0.868386 -0.02262666 0.4953724 
-0.06809206 -0.0009187013 0.0211506 0.4459765 0.891953 -0.07432941 
0.05115795 -0.0537044 0.0345057 0.5502442 -0.2866601 0.7842559 
0.06026475 -0.0517236 0.0309806 0.3854273 -0.04738417 0.9215208 
-0.02596515 0.009432301 0.031126 0.2127559 0.5697706 0.7937862 
-0.05060245 0.0489623 -0.0431958 -0.09250166 -0.6749452 -0.7320468 
0.04473215 -0.0046027 0.0391274 0.4934558 0.372582 0.7859288 
-0.01189945 0.0707773 -0.0151347 -0.7594482 0.5252991 -0.383796 
-0.05877595 -0.0165342 0.0377635 -0.6021492 0.1450329 0.7850999 
-0.001634751 -0.009163499 0.0450892 -0.2573315 0.561146 0.7866993 
-0.03559725 -0.0510185 0.0288179 -0.8205581 -0.2920555 0.4913126 
-0.02570405 -0.052181 0.0385054 -0.3535527 0.02488968 0.9350834 
-0.06581175 0.007884301 0.0462496 -0.4613748 -0.540005 0.7039374 
0.03192825 0.01932231 0.0257186 0.3673822 0.8497425 0.3781111 
-0.02139755 0.0160023 0.0243994 0.2847549 0.7381693 0.6115724 
-0.04194215 0.0121463 0.0393972 0.6221003 -0.06062776 0.7805866 
-0.05273946 0.04650331 -0.0318185 -0.3731125 -0.7894907 -0.4873311 
-0.03995355 0.0448173 0.0278724 0.6712807 0.5823815 0.458491 
-0.03051005 -0.0513927 0.0356879 -0.4726957 -0.6783729 0.5624669 
0.006767549 0.0719033 -0.0283256 0.5994732 0.4600259 -0.654987 
-0.07073555 -0.001692697 0.00788916 -0.9645554 -0.07840209 -0.2519645 
-0.06150025 0.04622529 0.00594022 -0.5299914 0.8298025 -0.1747481 
-0.01207375 0.0183133 0.0140554 0.06123566 0.990517 0.1229895 
-0.06424186 0.04663131 0.0171548 -0.4592466 0.8882517 -0.0100812 
-0.06205315 -0.0035647 -0.00678114 -0.6962075 0.1518829 -0.7015887 
-0.00736705 0.0151543 0.0239645 -0.1635056 0.8611747 0.4812942 
-0.04894786 0.05219831 -0.0539497 -0.161651 -0.9686356 -0.1887167 
-0.06099405 -0.0372304 0.0168677 -0.7543097 -0.6465125 0.1141864 
0.007822739 0.0654663 -0.0270729 0.719499 -0.3081976 -0.6223628 
-0.03913465 -0.0530556 0.00686723 -0.9518195 -0.306578 0.007033946 
-0.0009077508 0.0144603 -0.00832974 -0.145324 0.8433813 -0.5172901 
-0.05210146 0.0386533 -0.0186104 -0.2273763 -0.9152432 -0.3326107 
-0.02375795 0.0154373 -0.01015927 0.114711 0.7459996 -0.6559924 
-0.05100346 0.0404353 -0.0293044 -0.04886368 -0.8614296 -0.5055209 
-0.03650985 -0.0522157 0.017189 -0.9132395 -0.3748063 0.1597307 
0.0005734488 -0.0395419 0.0525715 -0.5085531 -0.2516943 0.823422 
0.01142154 -0.0400485 0.0558717 -0.08597479 -0.1730318 0.9811566 
0.02458103 -0.0404369 0.0547585 0.2403131 -0.1203883 0.9632011 
0.003176349 0.0092123 0.0372576 -0.2705601 0.5704326 0.7755024 
0.07138605 -0.052004 0.026046 0.6803114 -0.196743 0.706023 
0.0226723 -0.0145849 0.0530089 0.1979088 0.4156761 0.8877193 
-0.02561005 -0.0403199 0.0401953 -0.1748521 -0.2075269 0.9624757 
-0.01181315 -0.0396854 0.0404376 -0.3305749 -0.1801549 0.9264256 
-0.02046175 0.0541953 -0.0133805 -0.3789685 -0.355261 -0.8545014 
-0.03862275 -0.0423258 0.0336195 -0.3998657 -0.5147076 0.7584086 
-0.05867695 0.0478003 -0.0065056 -0.6944142 0.7158837 0.07279771 
-0.03772435 0.0147473 -0.01004328 0.007373773 0.514729 -0.8573212 
0.03519415 -0.001775704 -0.0191922 0.343815 0.4603321 -0.8184654 
0.07095205 -0.0421212 0.0258552 0.5694147 0.4546862 0.6848558 
-0.06942146 -0.0133431 0.00235278 -0.9333143 0.04676913 -0.3560017 
-0.05893195 0.0539483 -0.0303301 -0.8812361 -0.3053539 -0.3608074 
-0.02660215 0.0196943 -0.00385715 0.253581 0.8344865 -0.4892125 
-0.01379815 -0.0279289 0.042916 -0.3980969 -0.1554971 0.9040684 
-0.03745105 -0.0014107 -0.0191409 -0.1985729 0.2962275 -0.9342474 
-0.05487975 0.002298295 -0.01001097 -0.4697842 0.2346303 -0.8510296 
-0.03787215 -0.0157758 -0.0217567 -0.2045717 0.0508243 -0.9775313 
-0.03131535 -0.041746 0.0368175 -0.4064548 0.7603175 0.5066674 
-0.02981485 0.0373973 0.00630629 0.9825275 -0.1727711 0.06920912 
-0.06289756 0.02187529 -0.00527595 -0.5607511 0.03241092 -0.8273498 
-0.02430825 -0.001824699 -0.0204476 -0.09691741 0.3132265 -0.9447202 
0.01117236 -0.0145935 -0.0334719 0.1322844 0.4989767 -0.8564596 
0.01152321 -0.001620702 -0.0228066 0.0399881 0.5690041 -0.8213619 
-0.01198895 0.05053429 -0.00677106 0.4332556 -0.8274185 0.3573069 
-0.0003015511 -0.001469702 -0.0223555 -0.04389478 0.5788795 -0.8142309 
-0.07103235 0.0300803 0.038818 -0.8321389 0.4154422 0.3673591 
-0.04999975 0.0206333 -0.00921311 -0.07565811 0.1289715 -0.9887579 
0.06386305 -0.0362459 0.021097 0.6718809 0.419652 0.6103019 
-0.02346275 0.009409301 -0.0151593 0.01630783 0.5759934 -0.8172917 
0.006828149 0.0597823 -0.0204797 0.5096431 -0.8026145 0.3099582 
-0.03576095 0.04969729 -0.00339736 -0.6922774 0.20524 -0.6918299 
0.02280363 -0.0144458 -0.0307636 0.2459657 0.4112179 -0.8777248 
-0.05984985 -0.0350361 0.0260762 -0.6748549 -0.5977741 0.4327091 
-0.04501496 0.04217529 -0.0156103 0.9381354 -0.321769 0.1279327 
-0.05130766 -0.0391861 0.0300865 -0.5038545 -0.6754209 0.5384582 
-0.03703145 -0.0269109 -0.0207491 -0.1451271 -0.2586639 -0.9550032 
-0.02618305 -0.0288427 0.0423071 -0.02559093 -0.1409329 0.9896884 
-0.001081051 -0.0287884 0.0551569 -0.4230178 -0.0530297 0.9045683 
0.01149382 -0.0283039 0.0572224 -0.009806218 0.05558385 0.9984059 
0.0245586 -0.026567 0.0552403 0.2329037 0.08394671 0.9688699 
-0.06753315 0.0382753 0.00528114 -0.7807343 0.4539696 -0.4293782 
0.05450485 0.002638303 0.00207454 0.7938082 0.5840167 -0.1696852 
-0.05081465 -0.0274271 0.0401325 -0.4138759 -0.3234911 0.8509173 
-0.03840025 -0.0284993 0.0429551 -0.1019644 -0.2546275 0.9616486 
0.05563935 -0.0196531 -0.0144459 0.7436781 0.2209009 -0.6309879 
-0.04678995 -0.0681169 0.0390456 -0.7894974 0.3150488 0.526724 
-0.05237585 0.06077731 -0.0319103 0.3996316 0.8887381 0.2245867 
-0.04430225 0.04798231 -0.0213707 0.9500042 0.170009 -0.2618951 
-0.04479105 0.0546013 -0.0402072 0.9382934 0.07713806 -0.3371279 
-0.05119266 -0.0153883 0.0416194 -0.3391583 0.02446957 0.9404111 
-0.03185925 0.03153931 0.0142171 0.9338499 0.3479848 0.08264961 
-0.06092396 0.002367303 0.0412102 -0.3213022 -0.7985631 0.5089813 
0.03543535 -0.028484 0.0513078 0.4523715 0.0196544 0.891613 
0.02282107 0.0159023 -0.01054945 0.08642999 0.7708685 -0.6311036 
-0.03818365 -0.0142381 0.0436286 -0.03068595 0.09418008 0.9950822 
-0.02569865 -0.0156433 0.0426905 -0.00650197 0.08824284 0.9960778 
-0.01236885 -0.0137463 0.0439021 -0.3054411 0.2667784 0.914076 
0.03808925 -0.0206457 0.0486541 0.4789923 0.1766855 0.8598538 
0.03470375 0.0199043 0.00454753 0.4215288 0.8941758 -0.1508746 
-0.01151875 -0.001039699 -0.0213263 -0.1090295 0.4745277 -0.8734621 
0.03603805 -0.0129475 0.0471803 0.3353587 0.4051931 0.8505017 
0.01160699 0.0088633 -0.0165833 -0.02127493 0.5834584 -0.8118643 
-0.03532535 0.0548903 0.00238871 -0.6323607 0.7005867 0.330603 
0.05330155 -0.0118993 -0.0126112 0.7268708 0.2574043 -0.6367118 
-0.07371265 0.02365629 0.0289523 -0.9916874 0.09113777 0.09082957 
-0.05038025 -0.0008067042 0.0397941 -0.07730525 -0.2145864 0.9736409 
-0.02666985 -0.002840698 0.0395922 0.02713932 0.3899739 0.9204259 
0.02498961 -0.009408697 0.0482471 1 0 0 
-0.03800235 -0.003860697 0.0405621 0.03849473 0.361819 0.9314533 
-0.04941066 0.0079583 0.0467695 0.478932 -0.440311 0.7594408 
-0.03265865 0.03256729 0.00200978 0.7309514 -0.05447916 -0.6802515 
-0.03795705 0.0246613 -0.00543285 0.4099418 0.3438886 -0.8448008 
0.002741749 0.0741383 -0.0268565 -0.1712854 0.8268514 -0.5357034 
-0.01206425 0.05402429 -0.0149152 -0.09897331 -0.6238394 -0.7752604 
-0.03869165 0.003518298 0.0367929 0.1634465 0.2144837 0.9629548 
-0.02349025 0.002737299 0.0365099 0.08029932 0.4777196 0.8748349 
-0.01451175 0.002709299 0.0364654 0.03086923 0.6260291 0.7791885 
0.04249705 0.002852298 0.0362675 0.4616049 0.5466201 0.6986611 
-0.02949325 0.0396753 -0.00280376 0.5517827 -0.5128545 -0.6576596 
-0.0008469503 -0.07252251 0.0502154 0.5481106 -0.6073326 0.5750844 
-0.0003468506 0.06272531 -0.0186927 0.5410143 -0.8245817 -0.1654345 
-0.03945345 -0.0728171 0.0417933 -0.1492839 -0.6759077 0.7217085 
0.02332714 -0.0726511 0.041513 0.1488528 -0.6466786 0.7480974 
-0.02530865 -0.0726013 0.0411088 -0.01005421 -0.7595493 0.6503721 
-0.04896826 -0.0029817 -0.0154366 -0.4215965 0.2534491 -0.8706434 
0.04323895 -0.061845 0.0375401 0.6282909 -0.4421965 0.6400882 
0.05543885 -0.026042 -0.0147331 0.759986 -0.2232201 -0.6104048 
-0.06693245 -0.0279873 0.0180548 -0.8901808 -0.4167439 0.184127 
0.07074415 -0.0601687 0.0176119 0.7032539 -0.6794163 0.2093502 
0.03613615 -0.0541552 0.0456366 0.4656832 -0.2818083 0.8388822 
0.0248189 0.0104843 -0.0158796 0.1186833 0.5900989 -0.7985597 
-0.01397665 0.0493073 0.0003978162 0.7640729 -0.01470326 0.6449623 
0.04611665 -0.0508827 0.0401851 0.5847663 -0.2317322 0.7773986 
0.07565285 -0.0527571 0.017447 0.9532627 -0.243668 0.1786506 
0.03435775 -0.0178237 -0.0274888 0.4103939 0.2788711 -0.8682211 
0.03207155 -0.0491818 0.0495907 0.4494489 -0.2514169 0.8571962 
0.05421855 -0.0159403 0.0360464 0.7577701 0.202118 0.6204295 
-0.00238635 0.05864529 -0.0118483 0.7219133 0.4055144 0.5607132 
0.03252315 -0.040023 0.0514887 0.4395674 -0.143986 0.8865938 
0.03854615 -0.0396426 0.0478562 0.5513499 -0.162423 0.8183105 
0.04737135 -0.0397651 0.0413388 0.5956617 -0.1331227 0.7921272 
0.05432955 -0.0399092 0.0360626 0.7085505 -0.1115469 0.696788 
0.07496855 -0.0395369 0.0165641 0.8722503 0.4525985 0.1852944 
0.04917795 -0.02925 -0.0197864 0.6476231 -0.04580533 -0.7605829 
-0.05853336 0.0679453 -0.0512721 -0.8455835 -0.01336688 -0.5336757 
-0.04804585 -0.0469702 0.0169923 -0.4950287 -0.8577961 0.1383198 
-0.06310885 -0.0263117 0.0300732 -0.787295 -0.3283727 0.5218602 
0.03646865 0.0137473 -0.00752405 0.4317273 0.7089103 -0.5577255 
0.04817775 -0.0282126 0.0425723 0.6310084 -0.02163645 0.7754743 
0.05468255 -0.0285103 0.0362153 0.7632128 -0.01245967 0.646027 
0.05943035 -0.0281676 0.0290127 0.8871157 0.06581223 0.4568311 
0.06352575 -0.0283893 0.017191 0.9043275 0.3373609 0.2614948 
-0.06129836 -0.0369814 0.00627745 -0.7750016 -0.6213388 -0.1153714 
-0.01190495 0.008158296 -0.0152849 -0.001102438 0.6759595 -0.736938 
-0.06949865 0.005759299 0.00352569 -0.5770338 -0.435463 0.6909443 
0.00327515 0.0662543 -0.0265591 -0.4890413 -0.3607263 -0.7941757 
0.03497325 -0.0725456 -0.00650696 0.2678893 -0.9429405 -0.1977336 
0.03370785 -0.0719112 -0.0167915 0.4903378 -0.7804673 -0.3878655 
0.03681855 -0.0719265 0.0307422 0.3201175 -0.91966 0.2274873 
0.06104815 -0.0666486 0.00522076 0.4523456 -0.8615827 -0.2303448 
0.04011285 -0.0671535 -0.00851384 0.5279224 -0.708129 -0.4688831 
0.03662855 -0.0649767 -0.0197879 0.5486993 -0.5853868 -0.596868 
0.05895705 -0.0621286 -0.004123529 0.3740646 -0.5766399 -0.7263347 
0.06118625 -0.0665619 0.0171416 0.4459675 -0.8740344 0.1928132 
0.06878095 -0.0613628 0.00522691 0.6666204 -0.6946738 -0.2702695 
0.04607145 -0.0025777 -0.0148165 0.4688104 0.5256294 -0.7098807 
0.04816855 -0.0632463 -0.00675833 0.4609938 -0.6386434 -0.6161326 
-0.0009180512 -0.0129528 -0.0313218 -0.1949641 0.5743982 -0.7950193 
-0.01405465 -0.0734564 -0.0289865 -0.02918885 -0.7000877 -0.7134601 
0.04353185 -0.0601685 -0.0171578 0.6394083 -0.4899737 -0.5925224 
0.07291345 -0.0391209 0.00531813 0.7060251 0.6174402 -0.3468374 
0.06953115 -0.0526857 -0.00306 0.6429161 -0.1873619 -0.7426671 
0.07423125 -0.0535363 0.00454643 0.9125053 -0.2573686 -0.3179554 
0.06029865 -0.0524301 -0.00662544 0.4288146 -0.1798912 -0.8853006 
-0.04450995 0.0596633 -0.0532949 0.9985384 0.03102025 -0.0442596 
0.05160655 -0.0535811 -0.01006186 0.5610885 -0.4183511 -0.7142563 
0.04701175 -0.0517023 -0.0181659 0.7346472 -0.265655 -0.6242763 
-0.0002949517 0.008152299 -0.0163622 -0.07735379 0.6434094 -0.7616041 
-0.02429005 -0.0719985 -0.0269891 -0.6660442 -0.3666024 -0.6496059 
0.01230436 -0.0647127 -0.0279117 0.1688038 -0.494395 -0.8526892 
-0.04891215 -0.0733938 -0.00474508 -0.6289972 -0.5560952 -0.5432501 
0.06503515 -0.0365413 0.00484777 0.7183537 0.4677264 -0.5149757 
0.04240755 -0.0252424 -0.0251661 0.5070167 0.04942694 -0.8605179 
-0.01240865 -0.0651556 -0.0288963 -0.2938056 0.2311347 -0.9274994 
0.03930585 -0.0561722 -0.0242276 0.5950729 -0.3222122 -0.7362524 
-0.009659952 -0.07259791 0.0503483 -0.33752 -0.6653423 0.6658828 
0.03361185 0.0078713 -0.0151235 0.4640006 0.5015808 -0.7301508 
0.04923175 -0.0397604 -0.0189316 0.6822481 -0.09321138 -0.7251546 
0.05931635 -0.0402386 -0.00609395 0.7381102 0.1294383 -0.6621473 
0.06898085 -0.0440308 -0.00232634 0.6089481 0.3367452 -0.7181817 
-0.07183655 0.0205503 0.0422239 -0.8631697 0.07079074 0.4999268 
0.06343225 -0.028128 0.00521792 0.9483338 0.2194505 -0.2291386 
-0.05304955 0.04213829 -0.0393103 0.9965458 0.08304548 0 
-0.02546795 -0.0647345 -0.0182072 -0.6392488 0.5744368 -0.5112566 
-0.05447395 0.0700893 -0.0480388 0.2838222 0.7925202 0.5397747 
-0.05855915 0.0698923 -0.0477241 -0.6187088 0.7224399 0.3086745 
0.04791105 0.0107363 0.00515974 0.6844207 0.7197199 -0.116497 
-0.05965135 0.0599473 -0.0304582 -0.7798738 0.5933076 0.1994568 
0.03776055 -0.0148977 -0.0243147 0.4330284 0.3876759 -0.813753 
-0.007987751 -0.027889 0.0504762 -0.5921866 -0.4938237 0.6367521 
-0.04756035 -0.0724328 0.0156453 -0.8148885 -0.4806514 0.3239304 
-0.04727385 -0.0726795 0.0288697 -0.8012306 -0.5843687 -0.1286188 
-0.04693295 -0.0662996 0.0298692 -0.8622887 0.4835947 -0.1503148 
-0.04682625 -0.0725326 0.038213 -0.6835114 -0.6121347 0.3976222 
-0.05010625 -0.0737288 0.00532651 -0.7192628 -0.6918859 0.06288718 
-0.05045965 -0.0658999 0.00610554 -0.8713001 0.480965 0.09751322 
-0.03985595 -0.0646039 0.0194445 -0.8420793 0.5337063 0.07784674 
-0.04596946 -0.0663266 0.0136268 -0.6615456 0.5871869 0.466443 
-0.04191925 -0.0606205 0.00570698 -0.767529 0.6401353 -0.03355693 
-0.00588965 -0.0421171 0.0445192 -0.6714184 -0.2097778 0.7107677 
-0.04604425 -0.0360937 0.0373679 -0.2880427 -0.6559808 0.6976537 
-0.00180985 -0.0267459 -0.0390102 -0.1148684 0.1763523 -0.9776017 
-0.02522685 -0.073403 -0.0197086 -0.433556 -0.8880161 -0.1531556 
0.01059138 -0.0731187 -0.0207955 0.1058768 -0.9901353 -0.09177329 
-0.04818495 -0.0669255 -0.00459633 -0.6722136 0.4546065 -0.5843474 
-0.02089695 -0.06583691 -0.0269823 -0.3847449 0.6332791 -0.6715125 
-0.03816475 -0.0644721 -0.00816674 -0.5192325 0.2827142 -0.8065174 
-0.02418475 -0.0657311 -0.01057519 0.1555134 -0.5649787 -0.8103176 
-0.01473565 -0.0630994 -0.0173283 -0.8768842 0.1055999 -0.4689592 
-0.01324475 -0.051428 -0.0190954 -0.8798819 -0.1146891 -0.4611446 
-0.02540885 -0.051569 -0.0118827 -0.3115514 -0.1111428 -0.9437071 
-0.03753475 -0.051103 -0.00589215 -0.6741794 -0.3730201 -0.6374466 
-0.00869205 -0.0508751 -0.0288478 -0.6923749 -0.1620309 -0.7031095 
-0.03772515 0.009702303 -0.0139528 -0.1671471 0.5108865 -0.8432419 
-0.00157205 -0.0530892 -0.032443 -0.2780045 -0.3312844 -0.9016452 
-0.05126915 -0.0390893 -0.00712781 -0.5168619 -0.6728145 -0.5293152 
-0.05555665 -0.0423387 0.00495019 -0.5872782 -0.7899731 -0.176201 
-0.003229652 -0.0404794 -0.0371314 -0.3393581 -0.3080952 -0.8887708 
-0.01158545 -0.0403327 -0.0296305 -0.7961291 -0.2349009 -0.5576737 
-0.01531185 -0.041295 -0.0200999 -0.6824939 -0.2303078 -0.6936573 
-0.0002670512 -0.0734268 -0.0264926 0.0841557 -0.8283624 -0.5538354 
-0.05987495 -0.0345016 -0.00467611 -0.6968241 -0.5243216 -0.4894111 
0.03265535 0.0183453 -0.00324235 0.3596365 0.8442439 -0.3973838 
-0.06703176 -0.0277015 0.00472862 -0.8856059 -0.4109856 -0.2163172 
-0.06185795 -0.0279028 -0.00698405 -0.7637592 -0.3428476 -0.5469255 
-0.01347905 -0.0282886 -0.0318259 -0.8009949 -0.01030557 -0.5985824 
-0.01802065 -0.0259577 -0.0232671 -0.6046039 -0.1744485 -0.7771885 
-0.05064725 -0.027636 -0.0170062 -0.4446075 -0.2919905 -0.8467973 
-0.03379945 -0.0735317 -0.0134797 -0.6968495 -0.4345311 -0.5705992 
0.03368615 -0.0272797 -0.0297958 0.4477585 0.1058433 -0.887868 
0.003045949 -0.0198313 -0.0386081 0.1564325 0.1543767 -0.9755495 
0.0001780484 -0.0644913 -0.028869 -0.0187988 -0.2541101 -0.9669926 
-0.001839051 -0.009833604 -0.0253704 0 0 1 
-0.03805415 -0.0740771 -0.00676853 -0.2606342 -0.8209009 -0.5081256 
0.02452002 -0.009916902 -0.0251839 0.8944272 -0.4472136 0 
0.002604549 0.0183093 -0.00309966 -0.2991912 0.8852605 -0.3560877 
0.03501425 -0.0525473 -0.027854 0.4124102 -0.2198421 -0.8840743 
0.007957139 -0.0283483 -0.0385643 0.1408121 0.09395216 -0.9855683 
0.02273641 -0.0686251 -0.0225254 0.1692879 -0.7093607 -0.6842142 
0.03505905 -0.0398248 -0.0295172 0.4698753 -0.05993608 -0.8806957 
0.01170305 0.0203183 -0.00342945 -0.1004223 0.9141468 -0.392748 
0.02375931 0.0202883 -0.0037489 0.1032311 0.9025333 -0.4180634 
0.02309354 -0.0730983 -0.0185102 -0.3658422 -0.9113343 -0.1887571 
0.04731775 -0.0718445 0.00431137 0.2774029 -0.9369975 -0.2123282 
0.02374568 -0.0617964 -0.0269566 0.2054635 -0.4620706 -0.8627141 
0.03181905 -0.0604103 -0.0257297 0.3002016 -0.4712947 -0.8293132 
0.02353461 -0.0522514 -0.0310098 0.2259711 -0.2752865 -0.9344273 
0.01135962 -0.0531215 -0.0332134 0.0857578 -0.3039412 -0.9488232 
-0.01717565 -0.0506347 -0.0120737 -0.5037248 -0.1493377 -0.8508582 
0.01064832 -0.0397845 -0.036519 0.1580926 -0.2091948 -0.96501 
0.02314955 -0.040135 -0.0334983 0.2675941 -0.1411188 -0.9531416 
-0.03947945 -0.0425959 -0.01016059 -0.2932403 -0.5559427 -0.7777775 
-0.02478585 -0.0377643 -0.0167247 -0.2759815 -0.3812366 -0.8823224 
-7.8151e-05 -0.0372114 -0.0388045 -0.06052958 -0.2406407 -0.9687251 
-0.03809225 -0.0354604 -0.0167002 -0.1388975 -0.5198149 -0.8429116 
-0.04629465 -0.036489 -0.0144319 -0.3686502 -0.5728362 -0.73209 
0.02317936 -0.028704 -0.0344973 0.3179965 0.08760669 -0.9440356 
0.01410946 -0.0273076 -0.037301 0.252295 0.1246317 -0.9595907 
-0.00740505 -0.0262583 -0.0376862 -0.4692756 0.1738984 -0.8657597 
-0.02375755 -0.0286209 -0.020353 -0.1993518 -0.2818787 -0.9385112 
-0.05608815 -0.0300561 -0.0127807 -0.2407717 0.842701 -0.4815434 
-0.0005682502 -0.072496 -0.0201185 -0.0122353 -0.9271016 0.3746105 
-0.01408325 -0.07191 -0.0185453 0.09907573 -0.7656833 0.6355417 
0.01147341 -0.069635 -0.0150968 0.005112799 -0.9507509 0.309914 
-0.0002873503 -0.0695041 -0.0160287 -0.06298978 -0.9384593 0.3395975 
0.02502822 -0.07219911 -0.00707903 -0.3196341 -0.9429104 -0.09356302 
0.02179812 -0.069357 -0.0077538 -0.3734424 -0.9193759 -0.1236481 
0.0115544 -0.0688107 -0.00649969 -0.01426862 -0.9996333 0.02301727 
-0.0001204517 -0.0691532 -0.00642348 0.01720508 -0.9997805 0.01195844 
-0.02553705 -0.0736196 -0.00623812 0.3112295 -0.9234976 -0.2242508 
0.03641595 -0.0726511 0.00441929 0.05613875 -0.9983713 -0.01015941 
-0.01241915 -0.0693675 -0.00640517 -0.07731412 -0.9372808 -0.339893 
0.02261441 -0.0729189 0.00500658 -0.2163339 -0.9674965 -0.1309594 
0.01852903 -0.07016701 0.0003738222 -0.3351586 -0.9179199 -0.2123483 
0.01164661 -0.06941681 0.00532963 -0.1490433 -0.9851534 -0.08519876 
-0.02496835 -0.0734443 0.00532757 -0.002274746 -0.9990472 0.04358401 
-0.0003792513 -0.0694421 0.00541631 0.01753163 -0.9995561 -0.02408808 
0.04615575 -0.0719176 0.0181712 0.2275854 -0.9627848 0.1457746 
-0.03753225 -0.0741383 0.00525976 -0.02887151 -0.9995131 0.0118268 
-0.01097955 -0.06960981 0.00384013 0.01929586 -0.9994161 -0.02820013 
0.01654674 -0.07202131 0.0097685 -0.3602095 -0.9253202 -0.1184552 
0.03681615 -0.0725773 0.0190832 0.06010076 -0.9974142 0.03940544 
-0.01673875 -0.0739997 0.00659677 -0.08419353 -0.9900591 0.1126697 
0.02285397 -0.0731631 0.0174087 -0.2130607 -0.9585093 0.1893809 
0.01710803 -0.0726128 0.0128387 -0.3128088 -0.9491938 0.03437921 
0.05090565 -0.0701408 0.0204298 0.3086158 -0.8883721 0.3399285 
0.01159584 -0.0695805 0.0171278 -0.148397 -0.9853417 0.0841428 
-0.01775075 -0.0727016 0.0172473 0.1866416 -0.9811793 0.0495186 
-0.0003140513 -0.0695625 0.017233 0.02801237 -0.9994876 0.01548732 
-0.008696051 -0.0699995 0.017126 0.1179061 -0.9926998 0.0254037 
-0.03883095 -0.0740825 0.0169481 -0.1892617 -0.9816041 0.02516707 
0.01863489 -0.0700977 0.021763 -0.2811992 -0.9127471 0.2963442 
0.02751905 -0.07225581 0.0290776 -0.1182357 -0.9883407 0.09593163 
0.02299502 -0.0692031 0.0290825 -0.3467914 -0.9098606 0.2277928 
0.01152794 -0.0688641 0.0293468 -0.02606114 -0.9903657 0.1360026 
-0.01558075 -0.072237 0.0286452 0.2600875 -0.9654614 -0.01545162 
-0.01027795 -0.0695024 0.0317081 0.1912954 -0.9733089 0.1267907 
-0.0004153512 -0.0691685 0.0290383 0.05039233 -0.9821172 0.1814012 
-0.02444665 -0.0733889 0.0293884 0.0903371 -0.9942642 0.05725396 
0.03273675 -0.0721471 0.0406908 0.3642745 -0.7342898 0.5728199 
-0.03793635 -0.0735032 0.0292168 -0.06233673 -0.9974647 0.03432708 
-0.04855775 -0.0466443 0.00527708 -0.5049093 -0.844531 -0.1784209 
0.01094463 -0.0727215 0.0448175 0.255448 -0.2827275 0.9245602 
-0.01328885 -0.0729991 0.0427175 -0.4064431 -0.7630247 0.5025906 
-0.0005896501 -0.0729445 0.0452988 0.2826657 -0.8537752 0.4372277 
3 164 94 98 
3 224 335 49 
3 331 350 376 
3 124 122 237 
3 61 89 69 
3 61 161 94 
3 24 89 50 
3 109 25 35 
3 27 34 152 
3 444 443 435 
3 94 35 153 
3 3 61 69 
3 24 69 89 
3 38 218 104 
3 22 42 39 
3 14 24 34 
3 290 166 371 
3 226 76 224 
3 204 197 72 
3 82 3 14 
3 13 81 23 
3 99 13 23 
3 23 110 30 
3 110 2 30 
3 166 265 371 
3 90 61 3 
3 34 24 50 
3 293 167 207 
3 80 78 85 
3 61 94 164 
3 84 238 80 
3 4 161 61 
3 132 149 64 
3 196 22 228 
3 59 46 242 
3 179 84 80 
3 265 96 371 
3 52 258 207 
3 121 127 141 
3 343 168 346 
3 232 227 220 
3 232 243 227 
3 232 246 243 
3 57 126 56 
3 57 130 126 
3 221 232 220 
3 4 61 90 
3 134 80 85 
3 176 217 175 
3 4 0 161 
3 78 21 50 
3 126 130 129 
3 56 126 129 
3 111 182 201 
3 96 70 371 
3 89 164 98 
3 123 6 55 
3 197 87 72 
3 416 419 412 
3 245 80 179 
3 21 78 36 
3 61 164 89 
3 67 132 64 
3 150 149 132 
3 384 387 325 
3 214 221 112 
3 214 233 232 
3 221 214 232 
3 244 246 232 
3 233 244 232 
3 244 252 246 
3 244 143 119 
3 252 244 119 
3 127 142 141 
3 67 150 132 
3 82 90 3 
3 112 180 214 
3 244 253 143 
3 111 201 269 
3 37 74 63 
3 133 150 67 
3 118 133 67 
3 133 180 150 
3 191 214 180 
3 181 191 180 
3 191 234 233 
3 214 191 233 
3 234 244 233 
3 234 7 244 
3 244 98 253 
3 253 98 143 
3 216 217 115 
3 181 180 133 
3 15 16 219 
3 254 98 244 
3 7 254 244 
3 74 11 63 
3 14 3 24 
3 3 69 24 
3 217 216 175 
3 85 78 50 
3 73 78 80 
3 7 98 254 
3 105 133 118 
3 1 248 196 
3 48 241 100 
3 42 156 39 
3 149 173 344 
3 135 133 105 
3 106 135 105 
3 31 7 234 
3 148 31 234 
3 89 98 7 
3 31 89 7 
3 235 84 230 
3 14 27 236 
3 106 125 135 
3 19 20 62 
3 131 54 159 
3 34 50 21 
3 82 14 236 
3 201 52 43 
3 310 308 280 
3 131 159 54 
3 271 310 280 
3 27 14 34 
3 177 89 31 
3 238 73 80 
3 130 176 175 
3 354 331 381 
3 129 130 175 
3 125 136 135 
3 251 52 201 
3 106 56 125 
3 56 129 136 
3 125 56 136 
3 129 175 174 
3 136 129 174 
3 175 216 215 
3 174 175 215 
3 115 114 215 
3 216 115 215 
3 134 85 31 
3 85 177 31 
3 50 89 177 
3 85 50 177 
3 179 80 245 
3 400 407 367 
3 263 83 121 
3 217 179 115 
3 149 132 64 
3 178 187 116 
3 142 178 116 
3 326 120 319 
3 57 83 267 
3 304 391 294 
3 355 354 359 
3 128 29 11 
3 267 273 130 
3 48 16 10 
3 301 302 266 
3 196 66 22 
3 230 84 217 
3 247 13 243 
3 110 81 13 
3 271 178 266 
3 110 13 247 
3 278 277 267 
3 48 10 329 
3 258 11 275 
3 1 196 228 
3 154 247 243 
3 154 110 247 
3 263 141 270 
3 154 60 110 
3 60 154 110 
3 154 60 110 
3 11 74 37 
3 274 5 51 
3 252 154 243 
3 119 252 243 
3 109 110 60 
3 39 2 110 
3 109 39 110 
3 32 128 29 
3 32 128 11 
3 309 300 311 
3 252 119 154 
3 73 145 255 
3 67 64 259 
3 32 29 128 
3 258 275 43 
3 154 119 60 
3 119 109 60 
3 137 256 248 
3 270 267 83 
3 235 238 84 
3 267 130 57 
3 258 32 11 
3 302 310 271 
3 51 238 235 
3 266 302 271 
3 5 36 255 
3 51 235 230 
3 51 145 73 
3 286 51 230 
3 287 274 286 
3 119 25 109 
3 10 40 289 
3 120 48 329 
3 274 51 286 
3 276 230 217 
3 10 16 15 
3 51 5 145 
3 43 11 201 
3 176 276 217 
3 143 25 119 
3 158 207 167 
3 360 321 357 
3 130 273 276 
3 122 198 237 
3 270 278 267 
3 77 218 38 
3 15 6 40 
3 280 187 178 
3 271 280 178 
3 258 207 32 
3 66 58 22 
3 279 287 278 
3 155 139 172 
3 121 141 263 
3 288 41 274 
3 287 288 274 
3 276 176 130 
3 289 288 205 
3 274 41 5 
3 288 287 279 
3 329 10 289 
3 16 100 219 
3 127 178 142 
3 273 267 276 
3 252 119 243 
3 116 279 141 
3 41 123 5 
3 116 288 279 
3 142 116 141 
3 207 158 32 
3 276 277 230 
3 101 102 163 
3 299 298 294 
3 287 286 278 
3 5 255 145 
3 131 159 70 
3 275 11 43 
3 32 158 250 
3 205 288 116 
3 73 36 78 
3 120 329 319 
3 297 391 300 
3 84 179 217 
3 17 77 38 
3 255 36 73 
3 263 270 83 
3 249 248 1 
3 286 230 277 
3 11 37 66 
3 43 52 258 
3 267 277 276 
3 279 278 270 
3 141 279 270 
3 51 73 238 
3 47 36 5 
3 201 66 269 
3 201 11 66 
3 309 310 302 
3 300 309 302 
3 182 33 251 
3 278 286 277 
3 243 246 252 
3 416 427 419 
3 96 131 70 
3 66 256 111 
3 65 335 189 
3 113 374 407 
3 144 139 155 
3 226 224 139 
3 358 400 396 
3 30 91 203 
3 226 139 144 
3 46 328 242 
3 307 304 298 
3 70 159 54 
3 103 265 284 
3 443 261 446 
3 17 38 28 
3 88 200 239 
3 72 170 211 
3 138 17 28 
3 35 1 228 
3 295 299 294 
3 18 131 140 
3 18 59 131 
3 207 258 52 
3 188 70 54 
3 104 87 197 
3 222 48 120 
3 325 326 311 
3 326 281 120 
3 54 159 292 
3 386 299 295 
3 138 59 17 
3 48 100 16 
3 59 242 17 
3 296 121 83 
3 10 15 40 
3 242 91 17 
3 225 9 211 
3 314 322 384 
3 326 325 281 
3 170 225 211 
3 17 91 77 
3 144 76 226 
3 155 9 225 
3 159 131 28 
3 172 139 170 
3 131 138 28 
3 281 264 120 
3 264 222 120 
3 139 155 225 
3 139 225 170 
3 314 325 313 
3 386 295 390 
3 292 159 28 
3 132 149 344 
3 424 427 416 
3 49 335 65 
3 314 313 304 
3 111 269 66 
3 9 71 72 
3 211 9 72 
3 306 316 353 
3 307 314 304 
3 325 311 313 
3 40 41 288 
3 289 40 288 
3 40 6 41 
3 6 123 41 
3 22 39 109 
3 165 312 76 
3 299 307 298 
3 144 165 76 
3 312 107 76 
3 376 381 331 
3 165 107 312 
3 155 172 330 
3 35 228 22 
3 45 184 160 
3 42 62 156 
3 2 39 62 
3 58 42 22 
3 49 71 9 
3 280 116 187 
3 280 205 116 
3 155 330 144 
3 280 289 205 
3 319 280 308 
3 162 77 20 
3 20 77 91 
3 329 289 280 
3 319 329 280 
3 156 62 39 
3 372 408 375 
3 190 1 0 
3 1 35 0 
3 42 19 62 
3 35 161 0 
3 190 0 97 
3 35 22 109 
3 76 53 224 
3 161 35 94 
3 49 9 155 
3 224 49 155 
3 29 63 11 
3 160 162 19 
3 76 333 53 
3 153 25 143 
3 71 49 65 
3 2 20 30 
3 62 20 2 
3 55 8 5 
3 169 0 4 
3 6 8 55 
3 35 25 153 
3 160 218 162 
3 218 77 162 
3 15 334 6 
3 334 8 6 
3 332 76 93 
3 8 47 5 
3 98 153 143 
3 94 153 98 
3 219 334 15 
3 332 333 76 
3 93 76 107 
3 100 334 219 
3 160 19 45 
3 19 162 20 
3 340 132 344 
3 45 19 42 
3 27 47 8 
3 27 36 47 
3 80 115 179 
3 45 42 58 
3 71 184 45 
3 236 27 8 
3 334 236 8 
3 332 93 333 
3 27 152 36 
3 223 64 340 
3 236 334 117 
3 152 21 36 
3 134 148 115 
3 115 148 114 
3 152 34 21 
3 5 123 55 
3 337 68 191 
3 333 93 282 
3 256 66 196 
3 135 174 347 
3 183 180 195 
3 117 285 236 
3 182 111 63 
3 354 318 352 
3 114 234 68 
3 71 65 184 
3 135 136 174 
3 191 215 337 
3 337 215 114 
3 63 33 182 
3 133 135 181 
3 135 347 181 
3 110 23 81 
3 157 180 183 
3 149 157 183 
3 227 147 220 
3 12 23 30 
3 151 99 46 
3 174 215 191 
3 99 328 46 
3 114 148 234 
3 149 150 157 
3 220 147 284 
3 79 186 336 
3 68 234 191 
3 396 357 356 
3 99 23 12 
3 328 99 12 
3 337 114 68 
3 356 358 396 
3 338 343 342 
3 223 340 339 
3 265 103 96 
3 341 223 339 
3 347 174 191 
3 182 251 201 
3 134 115 80 
3 12 30 203 
3 345 343 338 
3 147 227 103 
3 33 108 251 
3 95 20 91 
3 181 347 191 
3 345 346 343 
3 157 150 180 
3 103 227 18 
3 66 240 58 
3 345 344 346 
3 146 32 108 
3 445 125 444 
3 30 95 91 
3 124 373 374 
3 137 249 72 
3 344 345 338 
3 344 168 346 
3 12 203 328 
3 284 147 103 
3 240 66 37 
3 344 173 168 
3 314 384 322 
3 107 282 93 
3 76 53 107 
3 107 53 282 
3 282 53 333 
3 165 76 107 
3 315 202 291 
3 165 144 76 
3 407 374 367 
3 144 53 76 
3 388 389 92 
3 155 144 330 
3 144 224 53 
3 432 431 434 
3 155 189 144 
3 144 189 224 
3 189 335 53 
3 224 189 53 
3 146 29 32 
3 382 88 209 
3 331 316 350 
3 331 353 316 
3 357 367 366 
3 360 357 366 
3 367 374 373 
3 366 367 373 
3 373 407 374 
3 388 92 169 
3 170 65 155 
3 155 65 189 
3 328 203 91 
3 413 421 414 
3 356 331 358 
3 242 328 91 
3 168 343 346 
3 113 198 122 
3 124 113 122 
3 239 200 315 
3 331 356 357 
3 372 26 102 
3 375 372 102 
3 26 163 102 
3 408 372 375 
3 72 87 65 
3 170 72 65 
3 87 184 65 
3 63 108 11 
3 63 29 108 
3 370 285 231 
3 389 370 231 
3 131 18 140 
3 33 63 108 
3 368 306 321 
3 374 113 124 
3 285 324 268 
3 231 285 268 
3 336 272 186 
3 224 155 139 
3 363 369 372 
3 86 193 163 
3 208 63 111 
3 380 305 202 
3 356 357 321 
3 346 354 352 
3 346 168 354 
3 168 359 354 
3 364 290 369 
3 363 364 369 
3 290 371 372 
3 369 290 372 
3 371 70 26 
3 372 371 26 
3 70 188 26 
3 188 54 26 
3 54 163 26 
3 54 86 163 
3 54 28 86 
3 28 38 86 
3 38 197 86 
3 38 104 197 
3 104 218 87 
3 218 160 87 
3 160 184 87 
3 58 240 208 
3 240 37 63 
3 208 240 63 
3 340 64 132 
3 343 168 346 
3 400 367 357 
3 396 400 357 
3 54 292 28 
3 96 103 18 
3 346 168 343 
3 249 137 248 
3 200 209 199 
3 79 222 281 
3 327 308 309 
3 343 346 352 
3 383 388 169 
3 200 88 209 
3 285 186 324 
3 241 48 79 
3 16 100 79 
3 303 100 79 
3 323 105 451 
3 100 303 186 
3 100 16 79 
3 321 353 331 
3 236 285 370 
3 389 231 92 
3 100 285 117 
3 108 63 11 
3 186 303 79 
3 88 382 209 
3 82 236 389 
3 100 241 79 
3 45 72 71 
3 0 169 97 
3 45 137 72 
3 285 100 186 
3 137 45 58 
3 199 378 305 
3 208 137 58 
3 356 331 357 
3 305 380 202 
3 378 349 305 
3 169 92 315 
3 192 262 75 
3 361 192 75 
3 291 202 237 
3 258 293 207 
3 272 79 377 
3 324 186 268 
3 268 186 88 
3 90 389 388 
3 169 315 291 
3 97 169 291 
3 79 320 377 
3 4 383 169 
3 379 317 368 
3 200 202 315 
3 92 239 315 
3 306 353 321 
3 370 389 236 
3 48 222 79 
3 206 361 185 
3 361 206 185 
3 92 231 239 
3 356 321 331 
3 190 171 185 
3 249 190 185 
3 206 198 361 
3 198 192 361 
3 90 388 383 
3 305 124 237 
3 327 311 326 
3 4 90 383 
3 190 249 1 
3 206 361 185 
3 171 206 185 
3 202 305 237 
3 108 29 146 
3 308 310 309 
3 334 100 117 
3 90 82 389 
3 79 336 186 
3 224 53 335 
3 354 381 318 
3 231 268 239 
3 186 272 209 
3 88 186 209 
3 200 199 202 
3 327 326 319 
3 308 327 319 
3 309 311 327 
3 435 443 446 
3 199 305 202 
3 97 171 190 
3 171 97 206 
3 97 291 206 
3 237 198 206 
3 291 237 206 
3 406 124 305 
3 399 402 400 
3 373 374 407 
3 300 304 311 
3 304 313 311 
3 407 213 113 
3 208 111 256 
3 403 402 399 
3 363 403 399 
3 29 128 32 
3 403 375 402 
3 363 399 359 
3 194 192 198 
3 193 86 75 
3 400 213 407 
3 272 336 79 
3 79 281 320 
3 300 302 297 
3 294 298 304 
3 299 322 314 
3 307 299 314 
3 322 384 314 
3 377 281 325 
3 387 377 325 
3 281 377 320 
3 355 358 331 
3 101 102 262 
3 363 375 403 
3 197 204 75 
3 102 101 262 
3 299 384 322 
3 262 163 193 
3 318 343 352 
3 299 322 384 
3 299 393 322 
3 322 393 384 
3 137 208 256 
3 86 197 75 
3 186 79 336 
3 222 264 281 
3 185 361 75 
3 365 360 366 
3 386 392 393 
3 299 386 393 
3 393 392 384 
3 392 394 384 
3 394 398 387 
3 384 394 387 
3 404 377 387 
3 398 404 387 
3 404 209 377 
3 209 272 377 
3 399 400 358 
3 359 399 358 
3 101 163 262 
3 262 193 75 
3 102 101 375 
3 204 72 249 
3 31 148 134 
3 424 437 427 
3 359 358 355 
3 400 402 213 
3 204 249 185 
3 351 317 386 
3 390 351 386 
3 317 392 386 
3 392 317 394 
3 317 395 394 
3 395 397 398 
3 394 395 398 
3 397 405 404 
3 398 397 404 
3 199 209 404 
3 405 199 404 
3 268 88 239 
3 75 204 185 
3 318 352 354 
3 243 18 227 
3 397 385 405 
3 385 199 405 
3 262 192 194 
3 101 262 194 
3 18 131 96 
3 349 378 199 
3 385 349 199 
3 250 158 167 
3 293 250 167 
3 379 362 395 
3 317 379 395 
3 395 362 397 
3 362 365 397 
3 365 401 397 
3 401 349 385 
3 397 401 385 
3 375 194 213 
3 213 194 113 
3 375 101 194 
3 354 352 318 
3 342 343 318 
3 375 213 402 
3 451 261 443 
3 32 250 293 
3 258 32 293 
3 113 194 198 
3 351 409 368 
3 355 331 354 
3 339 340 344 
3 372 375 363 
3 339 344 338 
3 368 321 379 
3 360 362 379 
3 360 365 362 
3 366 365 362 
3 365 366 362 
3 406 349 401 
3 365 406 401 
3 108 258 52 
3 258 108 32 
3 305 349 406 
3 297 302 301 
3 52 251 108 
3 321 360 379 
3 384 325 314 
3 373 406 365 
3 366 373 365 
3 373 349 406 
3 349 373 406 
3 373 124 406 
3 106 105 323 
3 439 434 431 
3 18 243 229 
3 83 57 260 
3 447 83 260 
3 418 425 429 
3 439 441 434 
3 441 442 434 
3 257 106 323 
3 391 425 418 
3 435 437 444 
3 257 323 452 
3 391 418 294 
3 296 440 441 
3 440 296 441 
3 131 59 138 
3 294 413 295 
3 95 30 20 
3 428 432 434 
3 422 424 415 
3 294 420 413 
3 425 296 429 
3 414 422 415 
3 425 121 296 
3 296 440 431 
3 452 323 451 
3 296 83 447 
3 431 441 439 
3 445 444 436 
3 429 296 431 
3 450 56 106 
3 301 121 433 
3 106 257 452 
3 414 415 411 
3 390 413 386 
3 18 229 59 
3 59 229 46 
3 386 414 411 
3 301 433 425 
3 248 256 196 
3 411 416 412 
3 300 391 304 
3 422 436 424 
3 46 229 151 
3 127 121 301 
3 412 419 356 
3 295 413 390 
3 351 390 411 
3 442 56 125 
3 409 351 412 
3 247 243 13 
3 330 172 155 
3 451 118 67 
3 364 44 290 
3 290 44 166 
3 166 210 265 
3 265 210 284 
3 442 436 434 
3 229 99 151 
3 364 449 44 
3 449 283 44 
3 418 420 294 
3 363 449 364 
3 212 284 210 
3 44 210 166 
3 420 428 422 
3 44 212 210 
3 247 229 243 
3 229 247 99 
3 127 266 178 
3 56 450 260 
3 413 420 421 
3 359 168 363 
3 363 168 449 
3 415 424 416 
3 296 447 260 
3 212 220 284 
3 436 437 424 
3 351 411 412 
3 440 441 431 
3 283 212 44 
3 451 67 261 
3 168 173 449 
3 449 173 283 
3 426 342 318 
3 381 426 318 
3 212 348 220 
3 266 127 301 
3 426 338 342 
3 149 283 173 
3 149 212 283 
3 438 338 426 
3 433 121 425 
3 149 183 212 
3 414 421 422 
3 172 170 155 
3 368 317 351 
3 350 381 376 
3 67 259 261 
3 183 112 212 
3 212 112 348 
3 348 112 220 
3 432 431 434 
3 448 339 338 
3 438 448 338 
3 420 431 432 
3 112 221 220 
3 428 420 432 
3 431 432 434 
3 417 381 350 
3 422 428 434 
3 423 426 381 
3 417 423 381 
3 56 260 57 
3 451 105 118 
3 296 260 440 
3 386 413 414 
3 306 350 316 
3 448 341 339 
3 415 416 411 
3 436 444 437 
3 259 341 448 
3 297 425 391 
3 442 125 445 
3 450 106 452 
3 410 350 306 
3 341 259 223 
3 355 417 350 
3 410 355 350 
3 259 64 223 
3 410 356 350 
3 356 410 350 
3 356 355 410 
3 355 419 417 
3 247 13 99 
3 195 112 183 
3 180 112 195 
3 419 355 356 
3 301 425 297 
3 390 386 411 
3 446 259 448 
3 446 261 259 
3 434 436 422 
3 421 420 422 
3 409 410 306 
3 368 409 306 
3 412 356 410 
3 409 412 410 
3 442 445 436 
3 435 423 430 
