ply
format ascii 1.0
comment VCGLIB generated
element vertex 4
property float x
property float y
property float z
property float nx
property float ny
property float nz
property float texture_u
property float texture_v
element face 2
property list uchar int vertex_indices
end_header
-0.9999999 1 4.371139e-08 0 -4.371139e-08 1 0.999900 0.999900
0.9999999 -1 -4.371139e-08 0 -4.371139e-08 1 0.000100 0.000100
0.9999999 1 4.371139e-08 0 -4.371139e-08 1 0.999900 0.000100
-0.9999999 -1 -4.371139e-08 0 -4.371139e-08 1 0.000100 0.999900
3 0 1 2 
3 0 3 1 
